<?xml version="1.0" encoding="UTF-8" standalone="no"?>
<!-- Created with Inkscape (http://www.inkscape.org/) -->

<svg
   width="210mm"
   height="297mm"
   viewBox="0 0 210 297"
   version="1.1"
   id="svg26033"
   inkscape:version="1.1.1 (3bf5ae0d25, 2021-09-20)"
   sodipodi:docname="JagTechno_Logo.svg"
   xmlns:inkscape="http://www.inkscape.org/namespaces/inkscape"
   xmlns:sodipodi="http://sodipodi.sourceforge.net/DTD/sodipodi-0.dtd"
   xmlns="http://www.w3.org/2000/svg"
   xmlns:svg="http://www.w3.org/2000/svg">
  <sodipodi:namedview
     id="namedview26035"
     pagecolor="#ffffff"
     bordercolor="#666666"
     borderopacity="1.0"
     inkscape:pageshadow="2"
     inkscape:pageopacity="0.0"
     inkscape:pagecheckerboard="0"
     inkscape:document-units="mm"
     showgrid="false"
     inkscape:snap-global="true"
     inkscape:snap-bbox="false"
     inkscape:snap-bbox-edge-midpoints="false"
     inkscape:bbox-paths="false"
     inkscape:bbox-nodes="false"
     inkscape:snap-nodes="false"
     inkscape:zoom="0.60473105"
     inkscape:cx="630.03214"
     inkscape:cy="711.0599"
     inkscape:window-width="1366"
     inkscape:window-height="715"
     inkscape:window-x="0"
     inkscape:window-y="0"
     inkscape:window-maximized="1"
     inkscape:current-layer="g63284" />
  <defs
     id="defs26030">
    <inkscape:path-effect
       effect="spiro"
       id="path-effect63131"
       is_visible="true"
       lpeversion="1" />
    <inkscape:path-effect
       effect="bspline"
       id="path-effect27139"
       is_visible="true"
       lpeversion="1"
       weight="33.333333"
       steps="2"
       helper_size="0"
       apply_no_weight="true"
       apply_with_weight="true"
       only_selected="false" />
    <clipPath
       clipPathUnits="userSpaceOnUse"
       id="clipPath26003">
      <rect
         style="opacity:0.3;fill:#102a43;stroke-width:0.244681"
         id="rect26005"
         width="89.488579"
         height="42.737328"
         x="57.196262"
         y="88.408661" />
    </clipPath>
  </defs>
  <g
     inkscape:label="Layer 1"
     inkscape:groupmode="layer"
     id="layer1">
    <g
       id="g63284"
       style="stroke:#552200;stroke-opacity:1">
      <g
         id="g63829">
        <path
           id="rect63687"
           style="opacity:1;fill:#ffffff;fill-opacity:1;stroke:#552200;stroke-width:3;stroke-linejoin:round;stroke-miterlimit:4;stroke-dasharray:none;stroke-opacity:1"
           d="m 57.84426,193.90872 c -0.735777,0 -1.328084,0.59231 -1.328084,1.32809 0,0.0659 0.0063,0.12997 0.0155,0.19327 -0.0038,0.0424 -0.0062,0.0853 -0.0062,0.12867 v 19.913 c 0,0.7733 0.622474,1.39578 1.39578,1.39578 0.773303,0 1.396296,-0.62248 1.396296,-1.39578 v -18.90686 h 94.509478 v 19.26549 c 0,0.7733 0.62299,1.39578 1.3963,1.39578 0.7733,0 1.39578,-0.62248 1.39578,-1.39578 v -19.913 c 0,-0.43908 -0.20067,-0.82969 -0.51573,-1.0852 -0.1712,-0.5353 -0.6658,-0.92346 -1.25936,-0.92346 z m 50.02899,4.99401 c -0.78999,0 -1.42627,0.63577 -1.42627,1.42576 v 20.35224 c 0,0.78999 0.63628,1.42627 1.42627,1.42627 0.78998,0 1.42575,-0.63628 1.42575,-1.42627 v -20.35224 c 0,-0.78999 -0.63577,-1.42576 -1.42575,-1.42576 z" />
        <path
           id="path30477"
           style="opacity:1;fill:#ffffff;fill-opacity:1;stroke:#552200;stroke-width:4;stroke-miterlimit:4;stroke-dasharray:none;stroke-opacity:1"
           inkscape:transform-center-x="1.9514106e-06"
           inkscape:transform-center-y="-4.2381766e-06"
           d="m 74.373309,171.45708 c -0.09769,0.6474 -0.139962,1.44444 -0.110588,2.44895 0.287764,9.84108 6.026944,0.28166 10.058818,9.26351 4.031872,8.98184 -6.925492,6.91685 0.236678,13.67204 7.162162,6.75522 4.46065,-4.06292 13.662731,-0.56276 9.202072,3.50015 -0.0064,9.78797 9.834542,9.5002 9.84106,-0.28777 0.28166,-6.02693 9.26351,-10.05882 8.98184,-4.03187 6.91631,6.92548 13.67152,-0.23668 6.7552,-7.16217 -4.06239,-4.46014 -0.56224,-13.66221 3.50015,-9.20209 9.78797,0.006 9.50019,-9.83506 -0.005,-0.18779 -0.0169,-0.35524 -0.0264,-0.52917 h -16.214 a 16.662158,16.662157 0 0 1 0.0698,1.48932 16.662158,16.662157 0 0 1 -16.66255,16.66203 16.662158,16.662157 0 0 1 -16.662032,-16.66203 16.662158,16.662157 0 0 1 0.07803,-1.48932 z" />
        <path
           id="rect27323"
           style="fill:#ffffff;fill-opacity:1;stroke:#552200;stroke-width:5;stroke-miterlimit:4;stroke-dasharray:none;stroke-opacity:1"
           d="m 119.02476,104.46316 a 28.268535,27.176661 0 0 0 -23.850224,12.62249 21.186548,21.186548 0 0 0 -9.017529,-2.0159 21.186548,21.186548 0 0 0 -21.064867,19.0469 c -9.173186,1.00813 -16.264641,8.73864 -16.264641,18.18907 0,10.14001 8.163258,18.30327 18.303274,18.30327 h 79.932067 c 10.14002,0 18.30328,-8.16326 18.30328,-18.30327 0,-10.1024 -8.10343,-18.24044 -18.19114,-18.30069 a 28.268535,27.176661 0 0 0 0.11834,-2.36524 28.268535,27.176661 0 0 0 -28.26856,-27.17663 z" />
        <g
           id="g29291"
           transform="translate(5.3445741,0.64773795)"
           style="fill:#ffffff;stroke:#552200;stroke-opacity:1">
          <ellipse
             style="fill:#ffffff;fill-opacity:1;stroke:#552200;stroke-width:3.1894;stroke-miterlimit:4;stroke-dasharray:none;stroke-opacity:1"
             id="path28340"
             cx="80.174957"
             cy="149.85216"
             rx="4.0858769"
             ry="4.0497961" />
          <ellipse
             style="fill:#ffffff;fill-opacity:1;stroke:#552200;stroke-width:3.1894;stroke-miterlimit:4;stroke-dasharray:none;stroke-opacity:1"
             id="ellipse28342"
             cx="101.75223"
             cy="149.85216"
             rx="4.0858769"
             ry="4.0497961" />
          <ellipse
             style="fill:#ffffff;fill-opacity:1;stroke:#552200;stroke-width:3.1894;stroke-miterlimit:4;stroke-dasharray:none;stroke-opacity:1"
             id="ellipse28344"
             cx="123.32951"
             cy="149.85216"
             rx="4.0858769"
             ry="4.0497961" />
        </g>
        <path
           id="path32167"
           style="opacity:1;fill:#ffffff;fill-opacity:1;stroke:#552200;stroke-width:3.31945;stroke-linejoin:round;stroke-miterlimit:4;stroke-dasharray:none;stroke-opacity:1"
           d="m 155.36609,215.05381 a 7.9448792,8.979943 0 0 0 -7.94493,8.97984 7.9448792,8.979943 0 0 0 7.94493,8.97983 7.9448792,8.979943 0 0 0 7.94494,-8.97983 7.9448792,8.979943 0 0 0 -7.94494,-8.97984 z m -0.14759,18.02577 a 16.419969,17.130047 0 0 0 -16.42003,17.1301 16.419969,17.130047 0 0 0 0.0126,0.36713 c 0.11712,-0.18178 0.31502,-0.30068 0.54054,-0.30068 h 31.94274 c 0.12452,0 0.24026,0.0367 0.33904,0.0999 a 16.419969,17.130047 0 0 0 0.005,-0.16633 16.419969,17.130047 0 0 0 -16.4197,-17.13011 z" />
        <g
           id="g62328"
           transform="translate(-3.4986601,1.9419225)"
           style="stroke:#552200;stroke-opacity:1">
          <ellipse
             style="fill:#ffffff;fill-opacity:1;stroke:#552200;stroke-width:3.39079;stroke-linejoin:round;stroke-miterlimit:4;stroke-dasharray:none;stroke-opacity:1"
             id="path32399"
             cx="62.500183"
             cy="229.66272"
             rx="18.802269"
             ry="18.936136" />
          <text
             xml:space="preserve"
             style="font-style:normal;font-weight:normal;font-size:17.2253px;line-height:1.25;font-family:sans-serif;fill:#000000;fill-opacity:1;stroke:#552200;stroke-width:1.76322;stroke-miterlimit:4;stroke-dasharray:none;stroke-opacity:1"
             x="57.020565"
             y="234.94049"
             id="text34735"><tspan
               sodipodi:role="line"
               id="tspan34733"
               style="font-size:17.2253px;stroke:#552200;stroke-width:1.76322;stroke-miterlimit:4;stroke-dasharray:none;stroke-opacity:1"
               x="57.020565"
               y="234.94049">$</tspan></text>
        </g>
        <g
           id="g62323"
           transform="matrix(0.82167622,0,0,0.85812967,25.337172,22.852081)"
           style="stroke:#552200;stroke-opacity:1">
          <rect
             style="opacity:1;fill:#ffffff;fill-opacity:1;stroke:#552200;stroke-width:3;stroke-linejoin:round;stroke-miterlimit:4;stroke-dasharray:none;stroke-opacity:1"
             id="rect62230"
             width="10.211703"
             height="40.725464"
             x="92.503487"
             y="226.10127"
             ry="0" />
          <rect
             style="opacity:1;fill:#ffffff;fill-opacity:1;stroke:#552200;stroke-width:3;stroke-linejoin:round;stroke-miterlimit:4;stroke-dasharray:none;stroke-opacity:1"
             id="rect62232"
             width="10.211703"
             height="27.980732"
             x="103.28944"
             y="238.84601"
             ry="0" />
          <rect
             style="opacity:1;fill:#ffffff;fill-opacity:1;stroke:#552200;stroke-width:3;stroke-linejoin:round;stroke-miterlimit:4;stroke-dasharray:none;stroke-opacity:1"
             id="rect62234"
             width="11.072416"
             height="16.808058"
             x="113.64503"
             y="250.01868"
             ry="0" />
        </g>
        <path
           style="fill:none;stroke:#552200;stroke-width:4;stroke-linecap:butt;stroke-linejoin:miter;stroke-miterlimit:4;stroke-dasharray:none;stroke-opacity:1"
           d="m 123.08028,113.8701 c 4.47692,0.61892 8.68483,3.00729 11.51145,6.53378 3.0514,3.80693 4.44259,8.89939 3.75056,13.72897"
           id="path63129"
           inkscape:path-effect="#path-effect63131"
           inkscape:original-d="m 123.08028,113.8701 c 3.83741,2.17819 7.67457,4.35612 11.51145,6.53378 3.83689,2.17766 2.50064,9.15291 3.75056,13.72897" />
      </g>
    </g>
  </g>
</svg>
